<svg viewBox="0 0 1732 74" x="0" y="0" fill="none" xmlns="http://www.w3.org/2000/svg"><path id="Vector" d="M1734,-68.936c-0.7,0.399 -1.92,1.037 -3.34,1.735c-1.41,0.697 -2.98,1.375 -4.41,2.153c-1.43,1.634 -2.71,1.076 -3.5,1.614c-1.06,0.878 -2.44,4.426 -3.92,1.057c-1.49,0.219 -3.08,6.1 -4.58,0.239c-1.5,2.093 -2.92,-3.189 -4.02,-0.817c-1.04,4.306 -1.83,-1.057 -2.56,-1.794c-0.74,1.854 -1.38,-0.917 -2.15,-2.074c-0.77,1.276 -1.64,0.2 -2.79,-1.395c-1.07,3.828 -2.68,1.974 -4.46,-0.459c-1.78,3.788 -3.72,5.921 -5.48,0.08c-1.76,-2.532 -3.34,-0.538 -4.37,0.778c-0.85,0.478 -1.81,1.475 -2.77,1.953c-0.96,-1.515 -1.92,1.276 -2.8,3.03c-0.87,1.894 -1.64,3.389 -2.2,2.791c-0.75,-3.07 -1.2,9.569 -1.58,3.011c-0.39,3.428 -0.69,2.751 -1.09,2.93c-0.4,2.851 -0.92,3.768 -1.73,2.412c-0.85,8.233 -2.23,6.639 -3.84,1.236c-1.59,1.914 -3.39,-0.179 -5.06,0.319c-1.68,-5.043 -3.23,1.675 -4.33,0.658c-0.37,-0.439 -0.75,1.435 -1.15,4.266c-0.41,-0.02 -0.81,-2.552 -1.21,4.226c-0.42,2.293 -0.84,6.141 -1.26,4.207c-0.42,-4.685 -0.83,5.96 -1.27,4.226c-0.37,-1.993 -1.78,0.758 -3.53,-0.179c-1.74,-0.04 -3.82,0.618 -5.55,-1.017c-1.73,3.03 -3.09,1.635 -3.42,-0.897c-1.23,-0.259 -2.22,0.119 -3.15,-2.552c-0.92,1.754 -1.81,-1.176 -2.79,-2.95c-1,4.286 -2.1,-0.818 -3.48,-2.353c-1.34,-0.398 -2.55,-2.133 -3.68,-1.634c-1.15,2.751 -2.25,3.767 -3.42,-1.396c-1.16,1.077 -2.38,-0.199 -3.76,-0.937c-1.55,-0.558 -2.58,-5.92 -3.54,-0.239c-0.96,-2.891 -1.87,2.412 -3.16,-1.435c-1.09,1.355 -2.1,-5.981 -3.09,-3.09c-1,-0.877 -1.96,0.937 -2.92,-3.309c-0.89,-2.373 -1.69,-0.14 -2.51,-2.472c-0.82,-1.197 -1.63,2.272 -2.5,-2.014c-0.87,-3.07 -1.8,1.037 -2.85,-1.814c-1.1,-1.096 -2.04,-0.239 -2.91,-1.316c-0.88,3.648 -1.66,-2.033 -2.47,-2.133c-0.64,-2.033 -0.87,-3.708 -1.11,-3.329c-0.23,-1.017 -0.47,-4.306 -1.1,-3.19c-0.77,-2.531 -1.84,-0.478 -3.06,-2.531c-1.22,-1.695 -2.62,1.774 -4.03,-1.854c-1.42,-2.552 -2.87,-1.615 -4.21,-1.655c-1.35,0.379 -2.57,1.555 -3.55,-1.934c-1.22,-3.688 -2.32,-4.645 -3.37,-3.13c-1.04,-2.89 -2.04,-2.751 -3.07,-3.488c-1.03,0.598 -2.08,-4.904 -3.25,-3.27c-1.34,0.878 -2.74,-1.714 -4.15,-2.99c-1.42,-3.19 -2.83,-2.95 -4.21,-2.691c-1.38,-3.927 -2.74,-2.273 -4.03,-3.309c-0.51,-0.559 -1.26,-0.16 -1.98,-1.675c-0.71,0.199 -1.38,-0.458 -1.71,-1.774c-0.73,-0.957 -0.75,0.777 -0.65,-3.15c0.09,-1.435 0.3,-5.721 -0.03,-2.99c-0.51,1.116 -1.29,-5.443 -2.27,-4.167c-0.98,0.04 -2.15,-1.734 -3.42,-2.731c-1.28,0.239 -2.66,-0.717 -4.07,-2.87c-0.86,-0.579 -1.43,-3.19 -1.97,-1.954c-0.55,0.478 -1.05,0.618 -1.77,-2.014c-0.94,1.216 -1.87,-2.192 -2.79,-2.751c-0.93,0.858 -1.82,-2.212 -2.71,-2.83c-0.09,3.628 -0.16,-1.994 -0.24,-2.193c-1.03,-0.858 -2.01,-2.253 -3.02,-3.369c-1.02,-2.432 -2.06,-1.914 -3.27,-1.755c-1.19,-5.203 -2.51,-9.05 -4.07,-1.913c-0.89,-1.874 -2.06,4.405 -3.33,-2.592c-1.28,1.774 -2.64,-2.671 -3.93,-1.894c-1.4,1.136 -2.39,1.136 -3.39,1.136c-0.99,-0.877 -1.99,1.675 -3.42,1.216c-1.22,4.406 -2.36,6.26 -3.48,-0.717c-1.11,-0.339 -2.23,-4.207 -3.38,-1.236c-1.16,4.944 -2.38,-0.479 -3.71,-0.279c-1.41,4.186 -2.49,2.631 -3.4,1.834c-0.91,-5.801 -1.64,0.079 -2.34,3.329c-0.72,0.259 -1.42,1.116 -2.24,3.728c-0.83,0.977 -1.81,-0.937 -3.09,3.05c-0.87,-1.754 -1.99,-1.595 -3.11,1.096c-1.11,-1.893 -2.23,-1.495 -3.1,0.997c-1.24,-0.438 -2.4,-0.399 -3.57,2.552c-1.17,-0.419 -2.32,1.953 -3.58,2.631c-0.76,0.937 -1.64,-1.256 -2.53,1.775c-0.89,0.079 -1.81,4.385 -2.7,2.133c-0.88,0.657 -1.71,4.246 -2.43,1.574c-1.17,-3.867 -2.13,0.758 -3.11,0.499c-0.98,0.797 -1.97,3.05 -3.25,0.1c-2.37,0.119 -2.67,6.758 -2.69,1.335c0,3.07 0.25,0.219 -1.01,1.475c-1.17,-0.099 -2.23,-2.212 -3.25,1.177c-1.01,-2.931 -1.99,-3.828 -2.95,0.996c-0.96,-1.495 -1.92,1.276 -2.9,2.233c-0.9,-3.947 -1.46,-1.316 -1.93,3.329c-0.46,-1.036 -0.81,2.373 -1.28,3.509c-0.47,2.193 -1.06,0.1 -2.02,3.229c-1.09,3.509 -2,-5.781 -2.97,1.854c-0.96,1.695 -1.99,-1.136 -3.3,1.017c-1.73,2.372 -2.68,8.173 -3.5,2.572c-0.82,2.153 -1.5,9.309 -2.69,3.508c-0.78,-0.359 -1.55,2.233 -2.3,2.672c-0.75,3.887 -1.48,4.226 -2.22,2.671c-0.73,-1.356 -1.46,-0.698 -2.2,2.711c-0.52,0.1 -1.03,0.877 -1.53,1.555c-0.49,-0.259 -0.98,-0.219 -1.47,0.977c-0.49,-0.937 -0.98,-0.558 -1.49,-0.658c-0.5,-1.276 -1.03,0.319 -1.57,1.535c-0.54,-1.754 -1.11,2.99 -1.74,0.917c-0.61,0.08 -1.28,0.04 -1.99,0.04c-0.65,-3.17 -1.23,-3.389 -1.77,-0.538c-0.54,-2.751 -1.05,0.538 -1.57,2.212c-0.52,-0.657 -1.05,0.499 -1.64,0.459c-0.59,1.415 -1.24,3.269 -1.99,0.797c-0.59,1.834 -1.17,1.276 -1.76,0.1c-0.6,-1.017 -1.17,-1.017 -1.77,-0.279c-0.59,-1.336 -1.17,0.877 -1.76,-1.356c-0.6,3.888 -1.17,-0.039 -1.77,1.077c-1.06,2.89 -1.95,0.299 -2.68,1.156c-0.74,2.352 -1.33,0.02 -1.8,0.319c-0.47,2.791 -0.84,3.648 -1.12,1.077c-0.28,-0.598 -0.49,-0.598 -0.65,2.192c-0.15,1.436 -0.28,2.771 -0.38,2.313c-0.11,0.678 -0.19,-1.376 -0.32,2.292c-0.08,-1.156 -0.2,-2.591 -0.36,0.898c-0.16,0.458 -0.35,-1.595 -0.56,2.95c-0.21,-0.419 -0.45,4.964 -0.72,3.449c-0.26,1.575 -0.54,1.316 -0.84,0.598c-0.29,0.917 -0.59,4.107 -0.89,0.937c-0.29,-0.379 -0.61,3.209 -0.92,2.811c-0.42,0.697 -0.93,-0.06 -1.49,3.528c-0.55,1.874 -1.18,1.834 -1.85,0.08c-0.66,0.897 -1.38,0.977 -2.11,1.415c-0.73,-0.697 -1.5,-2.611 -2.29,0.539c-0.78,-0.878 -1.57,3.967 -2.35,1.415c-0.79,2.133 -1.58,0.817 -2.33,0.14c-0.87,2.292 -1.73,-0.758 -2.6,0.777c-0.43,0.319 -0.85,4.186 -1.27,3.09c-0.42,0.578 -0.84,0.12 -1.26,-2.093c-0.94,-0.877 -1.4,3.449 -1.92,1.654c-0.26,-0.139 -0.52,0 -0.87,1.137c-0.35,1.116 -0.79,2.073 -1.37,0.099c-1.67,-4.106 -3.42,1.436 -5.2,0.379c-1.78,0.06 -3.61,-1.036 -5.43,-0.558c-1.82,0.299 -3.65,-0.179 -5.43,-0.578c-1.78,4.924 -3.53,-0.518 -5.2,0.299c-1.45,3.11 -1.99,-0.1 -2.47,1.296c-0.47,6.319 -0.87,-0.499 -2.06,2.472c-0.94,3.608 -1.92,-4.546 -2.93,2.352c-1.01,4.426 -2.04,4.127 -3.13,1.854c-1.08,0.638 -2.21,-0.618 -3.42,1.455c-1.52,5.403 -2.98,0.379 -4.45,1.137c-1.45,-0.519 -2.88,-0.758 -4.3,0.618c-1.41,4.585 -2.83,-0.798 -4.24,0.797c-1.41,-0.538 -2.85,-0.219 -4.28,1.675c-1.24,-5.283 -2.6,0.318 -4.01,2.352c-1.44,2.631 -2.94,-0.798 -4.46,2.591c-1.52,0.798 -3.07,-0.757 -4.57,2.193c-1.52,0.818 -3.01,-5.183 -4.42,1.177c-1.38,-0.3 -2.79,-1.615 -4.21,0.239c-1.41,3.748 -2.86,-0.14 -4.29,-0.08c-1.45,3.568 -2.89,-3.309 -4.32,-0.199c-1.43,-3.828 -2.84,3.329 -4.24,-0.12c-1.92,-0.179 -3.81,-0.399 -5.68,-0.14c-1.86,2.333 -3.71,-1.056 -5.57,-0.338c-1.85,-0.26 -3.68,4.485 -5.51,-0.419c-1.84,2.033 -3.67,-3.947 -5.52,-0.439c-1.85,-2.85 -3.7,2.014 -5.57,-0.339c-1.87,-2.83 -3.77,0.638 -5.69,-0.139c-1.17,0.937 -2.38,1.037 -3.58,0.08c-0.62,-1.177 -1.21,-0.678 -1.8,-0.14c-0.6,0.538 -1.19,1.136 -1.78,0.14c-1.19,0.498 -1.99,0.797 -2.61,-0.459c-0.61,-1.236 -1.01,-2.512 -1.37,-0.578c-0.74,-2.392 -1.31,3.21 -3.08,-2.332c-0.96,-3.888 -2.37,0.139 -4.01,-0.957c-1.65,2.352 -3.5,-2.034 -5.38,0c-1.89,-1.615 -3.79,-0.718 -5.5,0.398c-1.71,-6.857 -3.25,-0.319 -4.39,0.26c-1.72,0.677 -3.44,-0.957 -5.16,0c-1.73,3.169 -3.44,2.631 -5.17,0c-1.73,-5.084 -3.44,2.093 -5.17,0c-1.73,-2.193 -3.44,-3.33 -5.17,0c-1.55,2.073 -3.28,1.116 -5.08,0.219c-1.82,0.498 -3.7,3.11 -5.59,0.299c-1.89,-5.981 -3.74,2.831 -5.5,-0.14c-1.76,-3.488 -3.41,-1.315 -4.84,-1.096c-1.45,1.316 -2.77,1.136 -4.05,-1.994c-1.27,-0.099 -2.48,0.1 -3.72,-2.073c-1.24,-1.056 -2.49,-6.479 -3.86,-1.674c-1.36,-1.276 -2.83,5.462 -4.47,-0.818c-1.57,2.054 -3.14,0.319 -4.71,0c-1.59,4.207 -3.16,-1.475 -4.75,0.2c-1.59,-0.439 -3.18,-4.247 -4.75,0.159c-1.57,0.14 -3.16,0.379 -4.72,-0.12c-1.55,0.359 -3.1,-1.275 -4.64,-0.657c-0.37,2.791 -0.68,-4.127 -1.14,-4.845c-0.43,-1.216 -1.01,-4.864 -1.85,-3.13c-0.85,0.618 -1.99,-6.658 -3.56,-3.249c-0.87,-4.286 -1.66,-4.525 -2.43,-2.113c-0.76,-4.426 -1.53,-5.223 -2.39,-1.874c-0.85,-5.482 -1.8,-0.718 -2.93,-1.515c-1.28,-2.233 -2.67,-0.977 -4.16,-0.997c-1.48,-1.535 -3.05,-0.06 -4.64,-0.299c-1.61,3.09 -3.23,0.279 -4.86,0.14c-1.62,1.076 -3.21,-3.947 -4.76,0.279c-1.54,2.691 -3.01,3.987 -4.37,0.159c-1.76,6.698 -3.58,4.924 -5.43,-0.099c-1.87,-1.376 -3.77,3.987 -5.69,-0.18c-1.92,-1.395 -3.88,2.492 -5.82,-0.1c-1.94,-1.594 -3.89,-2.172 -5.81,0.12c-1.92,-1.356 -3.84,2.372 -5.69,0.479c-1.87,0.179 -3.69,-0.878 -5.45,0.996c-1.77,0.638 -3.48,0.937 -5.08,1.675c-1.63,5.123 -3.16,-0.239 -4.6,2.492c-0.92,-4.007 -2.07,1.734 -3.28,2.153c-1.2,0.04 -2.48,2.831 -3.65,1.555c-1.1,-2.054 -2.18,0 -3.23,-0.259c-1.05,2.551 -2.08,0.618 -3.07,0.956c-0.4,-1.594 -0.94,-0.398 -1.63,2.074c-0.68,0.877 -1.5,2.133 -2.44,0.917c-1.43,2.791 -2.93,0.219 -4.47,0.558c-1.54,-2.352 -3.13,-0.219 -4.73,-0.08c-1.61,0.957 -3.22,-0.339 -4.82,-0.379c-1.61,-0.179 -3.22,2.672 -4.77,-0.358c-1.57,0.538 -3.09,1.216 -4.56,0c-1.57,0.159 -3,-0.16 -4.36,1.096c-1.36,-0.817 -2.67,-0.1 -4,1.774c-1.33,-0.757 -2.655,3.309 -4.087,1.057c-1.432,0.937 -2.969,-1.854 -4.662,-1.037c-1.397,0.259 -2.236,-0.997 -3.144,-2.671c-0.908,3.548 -1.885,0.957 -3.527,-2.133c-1.467,-1.934 -2.706,-0.618 -3.859,-0.259c-1.152,-2.911 -2.2,-6.22 -3.283,-0.02c-1.1,-1.396 -2.235,-0.738 -3.562,-1.316c-1.362,-2.053 -2.567,-1.535 -3.789,-1.495c-1.24,1.694 -2.515,2.412 -4.016,-1.097c-0.419,3.589 -0.978,-1.594 -1.694,-2.093c-0.716,-2.651 -1.554,-3.189 -2.567,-0.817c-0.611,-1.077 -1.24,1.595 -1.851,0.1c-0.611,2.352 -1.24,-2.991 -1.851,0.099c-0.96,-0.379 -1.781,1.336 -2.427,-0.797c-0.664,-0.618 -1.152,-2.652 -1.502,-2.093c-0.995,-0.738 -2.008,-2.353 -3.038,-0.917c-1.03,0.319 -2.061,0.299 -3.126,-0.299c-1.047,-2.971 -2.112,-2.373 -3.195,0.338c-1.642,-1.455 -3.283,0.618 -4.907,0.06c-1.641,0.678 -3.265,-4.286 -4.907,0c-1.641,1.635 -3.265,0.12 -4.906,-0.04c-1.345,1.236 -2.497,-0.897 -3.58,0.359c-1.083,-5.502 -2.096,2.333 -3.143,0.798c-1.048,1.216 -2.131,-0.658 -3.388,0.697c-1.362,2.592 -2.567,4.047 -3.719,0.339c-1.153,-3.05 -2.235,0.638 -3.353,0.558c-1.117,4.107 -2.287,4.526 -3.579,1.595c-1.485,0.698 -2.759,1.894 -3.982,2.831c-1.222,0.558 -2.409,2.472 -3.719,2.492c-1.327,-3.389 -2.777,-1.276 -4.558,1.296c-0.454,-0.937 -0.89,-1.057 -1.344,-0.897c-0.454,-1.157 -0.891,1.116 -1.345,0.717c-0.454,-2.033 -0.89,-0.398 -1.344,-1.216c-0.454,0.957 -0.891,0.419 -1.345,1.037c-0.471,2.073 -0.908,2.113 -1.327,1.296c-0.401,0.199 -0.786,-0.259 -1.135,-0.359c-0.681,3.249 -1.24,-0.638 -1.676,2.053c-0.594,0.219 -1.24,-1.056 -1.904,-0.538c-0.663,0.777 -1.362,2.173 -2.078,1.595c-0.715,0.139 -1.449,0.199 -2.2,0.698c-0.751,0.677 -1.519,0.458 -2.287,-0.379c-0.769,-0.479 -1.554,-1.555 -2.34,-0.558c-0.786,-0.758 -1.572,-0.379 -2.357,0.418c-0.786,1.336 -1.554,0.598 -2.323,-0.279c-0.768,-0.518 -1.519,-1.096 -2.252,0c-0.734,-0.977 -1.45,-1.794 -2.148,-0.279c-0.699,0.1 -1.362,0.279 -2.008,0.12c-1.502,-0.618 -2.986,-1.436 -4.453,0c-1.467,0.976 -2.933,0.518 -4.4,0.039c-1.45,1.157 -2.899,0.16 -4.348,0.18c-0.716,-1.475 -1.432,0.678 -2.148,0.438c-0.716,1.396 -1.432,1.376 -2.148,0c-0.716,-1.016 -1.432,-1.355 -2.13,-0.099c-0.716,0.239 -1.415,0.658 -2.131,0.877c-1.379,1.395 -2.793,1.256 -4.243,0.658c-1.449,-0.698 -2.933,0.937 -4.418,0.179c-1.484,-1.475 -2.986,-0.458 -4.487,-0.099c-0.751,1.415 -1.485,-0.26 -2.235,-0.1c-0.734,1.276 -1.485,-0.319 -2.218,-0.1c-0.733,-0.518 -1.449,-0.518 -2.165,-0.319c-0.716,-0.139 -1.432,-1.714 -2.131,0.2c-0.925,0.976 -1.816,-1.476 -2.706,-0.1c-0.891,-0.1 -1.764,-0.12 -2.637,-0.06c-0.873,0 -1.729,-1.455 -2.584,-0.797c-0.856,0.558 -1.694,-1.117 -2.532,0.319c-0.838,-0.2 -1.677,-0.459 -2.515,-1.117c-0.838,-0.538 -1.659,-1.335 -2.497,0.279c-0.838,0.618 -1.658,-0.717 -2.497,-0.937c-0.838,-0.857 -1.676,0.539 -2.514,-0.259c-0.838,-0.099 -1.694,-1.734 -2.55,-2.173c-0.855,0.897 -1.728,-0.02 -2.601,0.559c-0.193,-5.124 -0.35,-2.453 -0.646,-3.529c-0.28,-0.04 -0.699,1.256 -1.432,-2.671c-0.716,1.933 -1.746,0.976 -3.266,-0.439c-0.785,2.671 -1.763,1.276 -2.776,1.535c-1.013,-2.372 -2.096,-0.757 -3.073,2.572c-0.978,-2.373 -1.886,5.143 -2.567,2.372c-1.153,2.931 -2.288,3.09 -3.458,3.13c-1.152,-1.495 -2.34,3.528 -3.544,3.09c-0.612,-1.455 -1.205,-1.156 -1.834,-0.299c-0.629,0.857 -1.257,2.292 -1.886,3.13c-0.646,-0.18 -1.292,-0.878 -1.955,1.076c-0.664,-0.299 -1.345,2.153 -2.044,1.296c-0.698,-0.379 -1.414,1.993 -2.13,1.156c-0.733,-1.136 -1.484,-0.678 -2.252,0.578c-0.856,-1.475 -1.712,0.718 -2.567,-0.398c-0.856,1.036 -1.694,-0.319 -2.532,1.036c-0.838,-0.478 -1.677,-0.099 -2.497,-0.518c-0.838,-1.655 -1.659,-1.695 -2.48,-0.04c-0.821,-1.655 -1.641,-0.738 -2.462,-0.817c-0.821,-1.256 -1.641,-1.336 -2.462,-0.18c-0.821,-1.395 -1.641,0.239 -2.462,0.399c-0.821,1.535 -1.642,-0.359 -2.48,-1.077c-0.681,0.24 -1.362,0.459 -2.06,0.678c-0.681,0.738 -1.38,1.456 -2.078,-0.757c-0.699,-0.08 -1.38,0 -2.078,0.099c-0.699,0.08 -1.38,0.16 -2.078,0c-1.38,-1.535 -2.776,1.575 -4.138,0.14c-0.751,-0.977 -1.415,-0.857 -2.044,-0.618c-0.628,0.239 -1.187,-0.538 -1.728,0.04c-0.542,0.658 -1.048,-0.18 -1.554,0.518c-0.507,0.558 -0.996,-0.239 -1.519,-1.714c-0.507,-0.479 -1.031,0.478 -1.607,-0.24c-0.559,0.957 -1.152,1.615 -1.816,-0.458c-0.751,1.336 -1.502,1.435 -2.253,0.159c-0.75,0.319 -1.519,-1.016 -2.27,-0.099c-0.75,1.495 -1.519,-1.176 -2.287,-0.06c-0.768,-0.598 -1.519,-0.957 -2.288,0.319c-0.768,0.638 -1.519,-2.053 -2.287,-1.316c-0.768,-0.757 -1.537,0.299 -2.288,1.615c-0.768,-0.08 -1.536,0.797 -2.287,1.076c-0.768,1.815 -1.537,1.874 -2.288,-0.897c-0.768,-0.159 -1.519,-1.614 -2.287,-1.116c-0.768,-0.797 -1.519,1.994 -2.287,0.997c-0.821,-1.037 -1.624,0.299 -2.41,-1.117c-0.786,-1.375 -1.554,1.356 -2.305,0.439c-0.769,-0.638 -1.519,-0.16 -2.27,-0.259c-0.751,-1.077 -1.519,1.694 -2.288,-0.598c-0.768,0.139 -1.536,-1.854 -2.34,-0.678c-0.785,-1.116 -1.606,-0.339 -2.444,0.359c-0.419,0.917 -0.838,2.472 -1.257,1.714c-0.42,0.259 -0.821,-2.213 -1.223,-1.575c-0.401,1.057 -0.803,1.436 -1.187,1.236c-0.402,-0.837 -0.786,-1.315 -1.187,-1.714c-0.559,-1.615 -1.013,0.757 -1.415,-0.518c-0.402,-1.535 -0.733,-1.575 -1.1,-1.376c-0.349,1.475 -0.733,-1.017 -1.188,-2.512c-0.454,-2.173 -0.995,-1.375 -1.676,0.917c-0.541,-0.498 -1.117,0.538 -1.728,-0.279c-0.612,1.117 -1.24,0.877 -1.904,-0.02c-0.646,-1.056 -1.327,-1.236 -1.99,-1.036c-0.664,0.179 -1.345,0.757 -1.991,1.315c-1.31,0.539 -2.584,0 -3.685,0.22c-1.466,1.993 -2.933,-0.519 -4.4,0c-1.467,0.139 -2.934,-1.436 -4.4,0c-1.467,1.096 -2.934,-0.937 -4.401,0c-0.733,2.113 -1.466,1.256 -2.2,0.279c-0.733,-1.934 -1.467,-1.316 -2.2,-0.279c-0.838,-2.114 -1.676,-2.213 -2.532,-1.276c-0.838,0.777 -1.694,0.817 -2.532,1.355c-0.855,-0.119 -1.694,2.632 -2.549,1.655c-0.856,0.399 -1.712,-1.555 -2.55,-1.515c-0.855,2.213 -1.711,2.432 -2.567,1.355c-0.855,0.658 -1.711,-0.199 -2.549,-1.236c-0.856,-1.275 -1.711,0.1 -2.549,-0.358c-0.856,0.319 -1.694,0.239 -2.55,0.378c-0.838,1.197 -1.694,-0.079 -2.532,-1.555c-0.838,0.479 -1.676,-1.754 -2.514,1.356c-0.751,-0.538 -1.484,0.379 -2.183,0.02c-0.698,1.236 -1.362,0.797 -2.026,-1.057c-0.663,0.519 -1.309,0.778 -1.955,-0.279c-0.646,-1.335 -1.292,-2.97 -1.939,-1.415c-0.646,0.12 -1.309,-0.14 -1.99,-0.678c-0.681,-1.375 -1.38,-0.877 -2.13,-0.518c-0.594,2.791 -1.223,0.379 -1.834,1.734c-0.629,0.319 -1.257,-0.877 -1.903,-1.894c-0.646,-0.518 -1.275,-1.734 -1.921,-1.176c-0.646,-0.379 -1.292,-0.957 -1.938,1.356c-0.646,0.339 -1.275,2.99 -1.904,2.233c-0.628,-1.256 -1.239,-1.934 -1.851,-2.094c-0.908,-0.677 -1.798,1.137 -2.706,1.157c-0.908,0.019 -1.799,-0.339 -2.707,-1.157c-1.798,2.991 -3.614,-0.438 -5.413,0c-1.798,-0.498 -3.615,-0.319 -5.413,0c-1.799,-0.538 -3.615,-2.133 -5.413,0c-1.799,-3.668 -3.615,1.954 -5.413,0c-1.799,-1.575 -3.615,0.778 -5.413,0c-1.572,1.336 -3.179,2.951 -4.82,0.1c-1.624,-1.296 -3.283,-4.784 -4.959,0.239c-1.659,-0.797 -3.335,2.472 -5.012,0.239c-1.676,2.632 -3.352,-3.867 -5.011,0.14c-1.659,-0.877 -3.3,1.894 -4.924,-0.1c-1.624,0 -3.213,-0.498 -4.767,-0.438c-1.467,-0.2 -2.794,-2.751 -4.086,-1.236c-1.293,0.359 -2.55,0.159 -3.859,-1.715c-1.31,4.167 -2.655,2.911 -4.156,-1.016c-1.083,-1.356 -2.462,1.156 -3.982,0c-1.519,3.369 -3.195,6.14 -4.854,0.378c-1.659,7.257 -3.318,1.735 -4.802,0.778c-1.502,-5.203 -2.829,-0.678 -3.859,1.216c-0.803,-1.336 -1.187,2.97 -1.554,1.495c-0.367,2.133 -0.716,3.17 -1.502,1.415c-0.751,4.865 -1.379,-1.574 -2.025,0.2c-0.629,-0.837 -1.275,-1.974 -2.026,0c-1.432,-3.05 -2.462,0.219 -3.3,1.615c-0.838,2.272 -1.502,3.747 -2.218,2.591c-0.716,0.658 -1.502,7.954 -2.584,3.05c-1.17,2.392 -2.375,-0.478 -3.58,2.412c-1.205,-1.535 -2.445,2.133 -3.719,0.957c-1.275,-1.495 -2.585,2.492 -3.929,0.16c-1.362,-4.705 -2.759,-2.951 -4.226,0.06c-1.536,0.059 -3.143,0.279 -4.767,0.637c-1.624,3.051 -3.248,3.31 -4.854,1.356c-1.607,4.645 -3.178,6.977 -4.68,1.954c-1.502,1.036 -2.934,-1.515 -4.243,2.432c-1.485,0.997 -2.462,3.827 -3.318,2.532c-0.856,0.219 -1.606,3.628 -2.619,1.574c-1.013,3.17 -2.305,2.333 -4.243,0.459c-1.135,1.176 -2.27,-0.857 -3.388,-0.06c-1.135,-0.458 -2.27,-2.691 -3.388,-0.02c-1.135,-2.432 -2.27,0.239 -3.387,0c-1.781,-1.216 -3.597,0.937 -5.396,0.06c-1.816,1.934 -3.614,3.289 -5.448,0.14c-1.816,2.731 -3.632,6.06 -5.465,0.139c-1.817,5.582 -3.65,-2.811 -5.466,0.08c-1.816,1.575 -3.632,1.017 -5.431,-0.06c-1.798,-0.379 -3.597,2.193 -5.378,-0.259c-1.082,-2.851 -2.287,1.435 -3.545,-0.479c-1.257,-2.83 -2.531,-4.923 -3.754,-0.917c-1.205,1.994 -2.357,3.549 -3.318,-1.335c-0.593,-0.818 -0.977,0.857 -1.397,-1.216c-0.419,2.173 -0.838,-4.007 -1.519,-1.216c-1.17,0.757 -2.584,3.149 -4.033,-0.658c-1.45,-1.376 -2.934,-5.861 -4.209,0.279c-1.449,-0.439 -2.933,0.817 -4.417,0.339c-1.485,2.193 -2.986,-2.333 -4.471,0.418c-1.501,0.04 -2.986,3.629 -4.47,0.479c-1.484,4.206 -2.933,-2.651 -4.383,0.538c-1.17,-1.216 -2.392,2.532 -3.544,0.877c-1.153,-1.295 -2.236,3.728 -3.126,1.874c-0.524,2.452 -0.926,2.133 -1.345,1.954c-0.419,-0.538 -0.838,1.635 -1.379,1.814c-0.716,0.12 -1.659,0.339 -2.637,0.877c-0.978,-1.595 -1.956,3.13 -2.741,0.798c-0.786,-1.376 -1.275,-4.346 -1.816,1.574c-0.542,4.905 -1.153,0.12 -2.166,1.316c-0.803,-0.977 -1.816,1.017 -2.916,0.239c-1.1,-0.817 -2.252,-0.737 -3.37,-0.239c-1.117,0.02 -2.165,-0.598 -3.038,-0.199c-1.31,-0.798 -2.602,-1.774 -3.912,0c-1.309,-0.538 -2.601,-0.16 -3.911,0c-1.31,0.877 -2.602,3.389 -3.912,0c-1.309,0.458 -2.601,1.236 -3.911,0.02c-1.799,-3.21 -3.44,1.036 -4.977,-0.18c-1.554,-0.797 -3.02,-4.266 -4.505,-0.578c-1.484,-0.139 -3.003,-0.339 -4.644,-0.897c-1.415,2.333 -2.917,2.492 -4.453,-0.438c-1.537,0.498 -3.108,1.714 -4.645,0.119c-1.537,-0.837 -3.073,5.742 -4.505,0.16c-0.245,-1.476 -1.572,3.07 -3.44,0.358c-1.869,1.974 -4.296,0.618 -6.705,0.798c-2.41,1.495 -4.837,1.196 -6.706,0.837c-1.868,0.319 -3.195,-0.817 -3.44,0.479c-0.227,3.09 -0.436,-1.256 -0.663,2.91c-1.1,4.785 -2.672,-1.076 -4.471,0.1c-1.798,3.748 -3.824,2.033 -5.849,0.139c-2.026,-3.349 -4.051,0.439 -5.85,0c-1.781,-1.415 -3.335,-3.648 -4.418,-0.378c-1.309,-2.871 -2.741,-0.06 -4.191,-0.638c-1.466,3.528 -2.951,-1.456 -4.4,-0.658c-1.449,-1.236 -2.829,0.199 -4.086,-1.057c-1.606,1.336 -2.899,4.705 -4.086,-2.412c-1.205,0 -2.305,-0.419 -3.545,-2.691c-1.24,-1.695 -2.602,-0.18 -4.295,-1.495c-1.45,1.435 -2.916,-0.299 -4.401,0c-1.484,-2.552 -2.986,-2.692 -4.47,0.319c-1.502,0.518 -2.986,1.714 -4.453,0.239c-1.484,-0.1 -2.933,-2.173 -4.365,-0.239c-1.711,1.276 -3.23,-7.077 -4.68,-1.336c-1.467,-4.027 -2.864,1.774 -4.365,-1.694c-1.484,-2.512 -3.073,-3.748 -4.89,-0.838c-1.257,-0.737 -2.793,0.738 -4.313,0.299c-1.519,-0.299 -3.055,5.263 -4.313,-0.079c-1.047,0.119 -1.571,-2.572 -2.095,-0.838c-0.524,0.22 -1.065,-3.349 -2.165,-1.096c-1.642,-2.353 -3.301,-3.708 -4.959,-1.256c-1.659,-2.333 -3.318,5.961 -4.977,-0.479c-1.659,6.699 -3.335,-0.996 -5.012,0c-1.676,-1.873 -3.352,0.937 -5.046,0.16c-1.694,-3.927 -3.388,0.618 -5.099,0.04c-1.519,3.568 -2.986,-0.339 -4.418,-0.279c-1.431,-3.23 -2.846,-5.363 -4.225,-0.558c-1.38,-0.977 -2.759,-0.618 -4.121,-0.838c-1.362,-0.06 -2.742,-0.777 -4.121,-1.096c-1.38,-1.655 -2.794,-2.373 -4.226,-1.356c-1.624,0.459 -3.248,-1.714 -4.889,-1.734c-1.642,-1.097 -3.283,2.332 -4.925,-1.774c-1.658,-2.014 -3.317,-0.22 -4.976,-1.695c-1.659,-1.475 -3.335,-0.478 -5.029,-1.475c-1.676,-3.21 -3.37,2.611 -5.081,-1.156c-1.694,-0.359 -3.406,-6.818 -5.117,-0.698c-1.711,-2.392 -3.44,-2.492 -5.168,-0.12c-0.769,-1.096 -1.9038,0.897 -3.2134,-3.05c-1.3097,-0.937 -2.7939,-8.811 -4.2258,-1.515c-1.4318,-5.941 -2.8462,-0.997 -3.9987,-1.615c-1.4843,-2.153 -2.6717,-0.099 -3.7892,-3.289c-1.1176,0.459 -2.1653,-1.635 -3.3701,-3.509c-1.2049,2.313 -2.5669,-5.302 -4.3306,-2.79c-1.554,2.153 -3.0558,-3.529 -4.5575,-1.934c-1.4842,-4.525 -2.9685,1.595 -4.4876,-1.974c-1.5017,-5.322 -3.0384,-2.352 -4.6623,-1.914c-1.4319,3.529 -2.9161,-10.266 -4.4004,-1.016c-1.4842,4.685 -2.9685,-0.16 -4.4353,-0.399c-1.4493,4.186 -2.8637,4.645 -4.1908,-0.777c-1.3271,-10.407 -2.5669,-11.603 -3.6844,-2.173c-0.8207,-1.097 -1.4144,-10.925 -2.078,-2.393c-0.6635,4.346 -1.3794,1.117 -2.4621,-1.913c-1.2747,0.737 -2.724,4.365 -4.2083,-0.559c-1.4842,-5.262 -2.9859,-6.957 -4.3654,0.299c-1.6589,6.2 -3.2479,4.366 -4.767,0.18c-1.5192,2.273 -2.9685,-3.529 -4.348,-0.479c-1.3795,5.283 -2.7066,-2.212 -3.9638,-2.312c-1.17,4.346 -1.7637,0.12 -2.5145,-2.931c-0.7334,-4.226 -1.624,-2.113 -3.3352,-1.814c-1.362,3.668 -2.8987,4.306 -4.4528,-0.139c-1.55406,2.352 -3.10815,0.299 -4.48763,0.299c-5.58776,-0.02 -15.41872,1.017 -20.91917,0.857v112.255c1.362,1.934 8.06733,3.748 9.69127,5.443c1.48425,-0.379 2.58434,-1.316 3.30027,-2.771c1.69379,-0.798 3.47489,-1.256 5.34329,-1.356c3.10819,-0.877 5.30837,-1.375 8.67847,-1.336c3.8241,0.04 7.6308,0.06 11.4549,-0.059c1.8684,-0.06 3.1431,-0.319 4.0861,0.159c0.9429,-0.658 1.5191,-0.159 2.0081,1.435c0.4889,1.894 0.8556,1.476 1.3795,3.668c1.362,-0.199 2.8113,0.937 4.313,0.638c1.5017,0.359 3.0558,1.914 4.6099,0c1.5541,1.854 3.1082,0.618 4.6274,-0.259c1.5191,-1.914 3.0034,-1.335 4.4003,-0.159c1.3271,-1.914 2.6717,1.535 3.9988,0c1.3271,2.492 2.6716,-0.299 3.9987,0c1.3271,2.053 2.6717,1.036 3.9987,0.02c1.3271,0.737 2.6717,0.299 3.9988,0.06c1.6938,2.372 3.1431,-0.08 4.4877,-0.499c4.2606,-1.276 5.0639,-1.236 9.1848,-3.807c1.8684,-1.177 2.8463,0 4.6972,0.239c1.5367,0.199 3.1082,-0.279 4.575,-0.539c1.3096,-0.239 2.4447,-0.697 3.8067,-1.016c2.2875,-0.519 4.2956,0.219 6.5481,0.259c1.868,0.04 3.51,-0.558 5.326,-0.399c1.484,0.14 3.091,0.698 4.61,0.718c2.951,0.06 5.57,-0.957 8.346,-0.877c0.542,-0.16 1.101,-0.239 1.659,-0.259c0.577,0.239 1.118,0.538 1.642,0.897c1.484,0.299 3.44,-0.539 4.994,-0.678c2.217,-0.18 4.47,0.239 6.688,0.199c2.27,-0.04 4.505,-0.359 6.792,-0.139c4.226,0.398 7.771,2.452 11.647,4.126c4.104,1.755 8.19,2.193 12.59,2.492c4.802,0.319 9.412,-0.877 14.214,-0.698c2.602,0.1 5.081,0.06 7.666,-0.199c2.636,-0.279 4.26,0.259 6.723,0.738c3.3,0.618 7.805,-0.459 11.018,-1.495c1.938,-0.618 2.986,-1.854 4.645,-2.931c1.938,-1.276 4.243,-1.954 6.426,-2.631c4.662,-1.436 9.639,-2.432 14.493,-2.413c2.445,0 4.575,-0.777 6.985,-0.976c2.217,-0.18 4.662,0.159 6.827,0.518c7.264,1.196 12.381,3.509 19.749,3.489c6.706,-0.02 13.009,3.448 19.383,5.063c1.24,0.319 2.392,0.957 3.597,1.276c1.187,0.299 2.288,0.12 3.475,0.319c1.275,0.219 2.305,0.578 3.614,0.718c2.724,0.279 5.064,-0.22 7.736,-0.1c2.2,0.08 4.173,0.997 6.356,0.518c0.751,-0.159 1.467,-0.697 2.218,-0.817c1.135,-0.16 2.025,0.399 3.056,0.259c2.479,-0.359 4.644,-0.937 7.316,-0.817c8.888,0.438 18.911,4.266 27.764,2.791c3.423,-0.578 6.618,-2.273 9.971,-3.13c0.663,-0.18 2.287,-0.279 2.881,-0.678c0.733,0.917 0.96,-4.346 1.676,-2.013c0.839,0.418 2.166,-3.23 3.528,-1.137c1.362,0.12 2.759,0.399 3.736,-0.378c1.52,-0.758 2.969,-1.117 4.348,-0.858c1.38,1.755 2.724,-2.272 4.052,-1.295c1.327,0.199 2.654,-0.937 4.016,-1.276c1.362,0.438 2.759,-1.974 4.26,-0.838c1.485,-3.289 3.056,1.456 4.75,0.04c1.118,-2.691 2.218,1.117 3.335,0.519c1.118,0.538 2.235,-2.413 3.353,0.578c1.117,-3.31 2.218,-2.931 3.318,0.438c1.082,0.877 2.182,-0.339 3.282,-0.259c1.101,3.25 2.201,-3.768 3.283,-0.458c1.17,-2.213 2.34,0.199 3.51,0.179c1.17,1.276 2.322,5.223 3.51,0.179c1.275,-5.542 2.532,0.379 3.807,-0.119c1.257,-0.518 2.514,0.199 3.771,-0.1c1.258,2.153 2.532,-0.119 3.807,0.06c1.746,-0.518 3.51,-1.475 5.291,0.339c1.763,0.06 3.545,-1.276 5.308,0.339c1.781,1.116 3.545,-0.359 5.309,0.04c1.763,-0.897 3.527,-1.196 5.273,-0.539c1.484,-0.976 2.864,1.097 4.173,-1.355c1.31,-0.718 2.55,-2.612 3.737,-2.213c1.188,-0.359 2.358,-0.937 3.51,-2.671c1.152,-1.775 2.305,-2.572 3.492,-2.731c1.188,-1.316 2.393,-2.413 3.685,-2.393c1.414,-1.595 2.864,-2.093 4.365,-2.013c1.502,1.375 3.021,-0.04 4.575,-1.495c1.554,-0.16 3.143,1.535 4.732,-1.057c1.589,-2.312 3.196,-2.292 4.802,-0.718c1.607,-0.897 3.213,-1.734 4.802,-0.458c1.589,-0.897 3.178,0.897 4.75,-0.299c1.764,0.877 3.562,1.236 5.361,-0.419c1.816,-1.674 3.632,1.137 5.465,-0.638c1.834,-3.189 3.685,-1.196 5.536,-0.717c1.85,0.677 3.701,0.996 5.552,-0.678c1.851,0.937 3.702,-1.934 5.553,-0.498c1.851,1.136 3.685,-0.778 5.501,-0.2c1.816,-1.176 3.632,-1.096 5.413,0.239c1.781,-0.498 3.562,1.954 5.291,0.818c1.746,1.435 3.457,0.717 5.134,1.515c1.676,1.575 3.335,0.319 4.941,2.332c1.607,1.296 3.196,1.376 4.715,3.29c1.17,0.996 2.34,1.156 3.562,2.093c1.205,-0.479 2.445,2.073 3.737,0.538c1.292,0.937 2.619,-0.459 3.999,-0.957c1.606,-0.658 3.143,-1.276 4.644,-1.834c1.502,-0.558 2.969,-1.076 4.401,-1.535c1.432,-0.458 2.881,-0.857 4.33,-1.196c1.45,-0.658 2.899,0.12 4.401,-0.797c1.501,0.079 3.038,0.279 4.627,-0.339c1.606,-0.299 3.265,0.996 5.029,0.159c1.886,-1.096 3.754,0.359 5.623,0.638c1.868,0.518 3.736,0.299 5.587,0.917c1.851,1.455 3.72,-0.04 5.571,1.057c1.851,1.913 3.719,0.638 5.57,1.056c1.851,-0.797 3.719,1.834 5.588,0.917c1.868,-1.176 3.737,-0.797 5.622,0.638c1.886,-0.757 3.772,-0.279 5.658,0.239c0.768,0.479 1.624,1.017 2.48,-0.139c0.855,1.176 1.711,0.777 2.462,-0.439c1.205,0.698 2.636,-0.697 4.121,-1.096c2.968,-0.818 6.181,-1.814 8.381,-2.911c0.559,-0.279 0.926,-0.757 1.327,-1.236c0.402,-0.378 0.821,-2.272 1.485,-1.276c0.803,0.24 1.589,-1.535 2.392,-0.478c0.803,-1.077 1.624,-0.797 2.462,0.14c1.222,0.378 2.602,0.917 4.051,-0.339c1.45,-0.08 2.986,-0.758 4.54,-0.917c1.554,-1.037 3.143,0.817 4.68,-0.897c1.537,1.315 3.056,0.199 4.47,-0.28c1.415,-0.199 2.724,0.818 3.877,0.957c0.576,-0.697 1.047,-0.797 1.484,1.256c0.419,0.339 0.803,1.655 1.187,1.735c0.385,1.555 0.751,1.694 1.17,2.392c0.419,1.017 0.891,2.412 1.45,0.797c0.558,1.555 1.187,0.259 1.868,1.336c0.681,-0.199 1.414,-1.555 2.183,-0.219c0.768,1.016 1.571,1.116 2.357,0.618c0.803,-0.598 1.607,0.937 2.392,-0.738c0.786,0.897 1.554,-0.08 2.288,0.199c0.733,-0.02 1.414,-0.179 2.043,-0.498c1.763,1.256 3.51,-1.555 5.273,0c1.764,0.04 3.51,1.415 5.274,0c1.763,-0.06 3.509,0.618 5.273,0c1.764,1.495 3.51,0.578 5.274,0c1.641,0.658 3.09,0.797 4.47,-0.1c1.379,-0.219 2.671,-1.176 3.946,0.319c1.275,-0.199 2.532,3.27 3.877,1.595c1.327,1.116 2.322,1.695 3.37,1.396c1.048,0.777 2.148,0.458 3.684,0.717c1.153,1.675 2.218,0.837 3.231,1.376c1.012,2.412 1.99,0.817 3.003,1.874c0.995,2.511 2.026,0.677 3.126,1.495c1.013,1.156 2.078,-1.137 3.16,0.498c1.083,-0.239 2.2,0.877 3.301,-0.04c2.025,-1.694 9.219,-0.079 12.467,0.02c1.973,0.06 2.969,-0.757 4.715,-1.216c0.454,-0.399 0.995,-0.498 1.624,-0.299c0.628,0.339 1.152,0.818 1.571,1.416c1.275,0.219 1.956,-1.436 2.917,-2.313c0.733,-0.678 2.322,-1.834 3.212,-2.113c1.153,-0.359 2.078,0.08 3.126,-0.618c0.961,-0.658 1.17,-2.153 1.886,-3.03c0.524,-0.658 1.414,-1.336 2.026,-1.934c2.479,-2.452 5.849,-2.891 8.765,-4.904c2.812,-1.954 3.336,-3.449 7.142,-3.429c3.632,0 7.282,0.439 10.914,0.479c8.469,0.119 16.239,-1.775 24.464,-3.589c4.156,-0.917 8.521,-1.854 12.782,-1.754c3.649,0.08 7.072,1.296 10.669,1.734c6.758,0.818 15.419,-0.279 21.74,-2.99c1.239,-0.538 2.252,-1.395 3.283,-2.193c1.03,0.598 2.06,-2.033 3.37,-1.934c1.554,0.2 2.916,0.638 4.19,-0.777c1.275,1.256 2.445,-1.695 3.597,-0.299c1.153,-0.797 2.305,-0.778 3.51,-0.658c1.205,0.538 2.48,-0.498 3.894,-1.874c1.013,0.618 2.235,-2.332 3.528,-1.555c1.292,-1.874 2.654,-1.814 3.963,-0.498c1.31,1.216 2.567,1.774 3.667,0.877c0.978,0.957 1.415,0.758 1.886,1.655c0.472,1.096 1.013,0.857 2.2,1.315c0.786,-0.259 1.729,-1.674 2.672,0.08c0.943,-0.598 1.903,0.06 2.742,-0.08c1.187,-0.976 2.252,-1.096 3.265,0.559c1.013,0 1.938,3.01 2.864,1.096c0.908,0.319 1.816,0.578 2.724,1.794c1.362,2.632 2.112,1.635 3.02,2.552c0.909,0.618 1.939,0.02 3.877,1.216c0.821,-1.256 1.641,2.552 2.462,-0.1c0.821,-1.316 1.659,0.16 2.497,0.06c1.397,-0.339 2.934,1.675 4.558,0.1c1.606,-0.479 3.282,-1.894 4.976,-0.957c1.694,-1.037 3.388,-2.333 5.029,-1.156c1.642,-0.359 3.231,-1.396 4.697,-0.539c1.031,-0.658 2.148,0.917 3.266,0.578c1.117,1.456 2.235,1.316 3.283,1.376c1.047,1.017 2.025,-0.518 2.846,1.754c0.821,0.937 1.868,2.751 2.968,2.313c1.101,-0.18 2.253,2.89 3.266,1.575c0.908,-1.336 2.235,0.937 3.719,-0.24c1.484,0.658 3.126,0.758 4.662,-0.378c1.537,2.252 2.951,-0.479 3.982,0.837c1.03,1.455 1.693,0.578 1.693,3.369c0,1.734 -0.209,1.914 0.07,4.087c0.28,1.156 1.065,1.894 3.074,1.495c1.047,-0.2 2.025,-0.06 2.986,-1.356c0.96,0.658 1.881,-0.817 2.831,-2.113c0.94,-0.678 1.88,-1.435 2.88,-1.774c1.13,1.535 2.3,-0.778 3.47,-1.077c1.17,0.439 2.34,1.655 3.48,-0.957c1.13,-3.05 2.22,-0.637 3.25,-1.674c1.01,-1.017 1.88,-2.95 2.7,-2.632c0.82,0.718 1.61,-0.318 2.46,-2.89c0.86,0.837 1.79,0.239 2.9,-2.432c1.19,-2.871 2.43,-2.014 3.71,-1.376c1.27,-1.196 2.58,-2.173 3.89,-0.219c1.31,0.678 2.62,1.435 3.93,0.538c1.31,-0.638 2.62,3.469 3.93,0.897c1.31,4.147 2.62,0.718 3.94,0.858c1.33,1.714 2.66,2.013 4,0.358c1.84,-1.913 3.49,3.409 5.08,-1.016c1.58,-1.057 3.06,0.598 4.49,-2.413c1.45,-0.897 2.85,-0.139 4.28,-2.95c1.43,-3.15 2.88,-2.033 4.42,-2.611c1.53,-3.569 3.16,-1.236 4.92,-1.416c1.49,2.153 3.11,-1.256 4.82,-0.139c1.71,-1.874 3.51,-0.02 5.38,0.458c1.87,2.014 3.79,1.934 5.74,1.017c1.96,-0.818 3.93,-2.452 5.89,1.515c1.97,-0.937 3.93,0.957 5.83,1.973c1.92,-1.216 3.79,2.134 5.57,2.393c1.8,1.196 3.51,1.415 5.1,2.771c1.61,3.149 3.09,0.478 4.44,3.09c1.34,4.804 2.53,0.937 3.54,3.369c0.66,1.076 1.59,3.648 2.62,1.993c1.03,0.658 2.16,0.977 3.3,0.937c1.12,0.219 2.23,2.372 3.19,-0.717c1.23,-1.615 2.19,-1.555 3.18,-2.532c1,-3.509 2.06,-4.246 3.46,-2.253c1.12,0.618 2.27,-1.356 3.44,-1.096c1.17,0.618 2.36,-3.469 3.55,-0.698c1.67,1.615 3.31,0.339 4.92,-0.259c1.62,2.551 3.21,2.352 4.84,0.379c1.6,1.933 3.23,-3.37 4.9,0.398c1.5,1.475 2.57,-0.678 3.55,-0.478c0.98,-0.12 1.87,-0.957 2.98,-1.914c1.26,0.558 2.64,-1.914 4.07,-1.974c1.43,-1.874 2.95,-1.714 4.49,-0.438c1.54,-0.419 3.09,-0.678 4.63,0.299c1.53,-0.997 3.04,1.654 4.49,0.279c1.79,-0.359 3.57,0.917 5.37,0c1.8,1.555 3.58,-0.618 5.38,-0.02c1.8,2.452 3.58,-0.459 5.38,-0.02c1.8,1.136 3.58,-4.426 5.38,0c1.8,3.329 3.58,-0.12 5.38,0.02c1.79,5.841 3.58,1.575 5.37,0.08c1.37,0.299 2.97,-2.791 4.7,-0.379c1.75,5.821 3.62,-1.455 5.52,-0.777c1.9,-2.811 3.82,-5.782 5.64,-0.419c1.83,1.256 3.56,-0.738 5.1,0.678c1.54,4.405 2.86,-2.552 3.86,2.512c0.8,-2.114 1.5,-0.3 2.22,3.03c0.71,7.435 1.43,1.614 2.28,2.83c0.86,1.735 1.84,1.675 3.06,2.114c1.4,5.262 2.81,0.677 4.22,0.817c1.44,0.179 2.87,-0.558 4.33,0.04c1.23,0.219 2.27,-1.914 3.24,0.578c0.96,-0.459 1.85,1.356 2.7,1.356c0.86,-1.516 1.7,2.79 2.59,2.013c0.85,0.917 1.67,2.093 2.53,1.934c0.85,0.538 1.71,0.996 2.63,1.375c0.93,0.379 1.93,0.678 3.01,0.917c1.31,0.299 2.81,0.937 4.15,1.077c1.77,0.159 3.53,-0.658 5.33,-0.578c3.54,0.139 7.02,1.694 10.11,3.369c2.78,1.515 5.4,4.007 8.35,5.123c3.05,1.136 6.81,1.077 10.02,1.515c3.95,0.518 7.98,1.196 11.94,1.515c3.81,0.319 7.91,-0.399 11.58,-1.455c1.17,-0.339 2.45,-1.176 3.65,-1.236c1.22,-0.06 1.82,0.598 2.95,0.777c2.03,0.299 3.86,-0.797 5.94,0.1c4.91,2.093 2.62,10.207 9.72,6.26c1.3,-0.957 2.62,-1.216 3.97,-1.137c1.34,-1.255 2.72,-1.136 4.1,-0.737c1.38,0.777 2.76,-1.874 4.14,-0.459c1.38,1.994 2.74,-1.295 4.1,-0.299c1.38,-1.634 2.87,-1.953 4.4,-0.378c1.52,0.936 3.09,1.475 4.61,-0.24c1.52,0.459 3.01,-0.757 4.39,0.399c0.84,0.738 1.52,3.509 2.18,0.877c0.66,-3.09 1.29,-2.253 2.03,0.837c1.53,0.06 3.14,1.356 4.78,0.579c1.66,0.578 3.34,-2.353 5.05,0c1.69,-1.595 3.4,-0.579 5.08,-0.26c1.67,-0.179 3.32,-4.027 4.89,-0.159c1.6,1.635 3.21,1.974 4.8,0c1.61,-1.675 3.21,1.674 4.8,0c1.61,-0.14 3.21,1.515 4.8,0c1.61,-2.153 3.22,-0.319 4.8,0c1.37,-0.678 2.82,1.156 4.32,0.159c1.48,-1.435 3.02,2.054 4.54,0.22c1.52,-0.14 3.04,3.05 4.49,-0.16c1.44,-1.535 2.86,2.113 4.15,-0.937c1.24,1.774 2.18,0.499 2.99,-1.674c0.82,1.894 1.5,-1.017 2.25,-1.994c0.96,-0.219 2.32,-1.076 3.84,-1.355c1.52,0.638 3.21,-0.499 4.87,-2.433c1.64,-1.495 3.25,-1.694 4.6,-2.97c1.34,-1.774 2.41,-0.538 3,-2.95c0.66,-2.113 0.99,-3.17 1.2,-3.609c0.21,-0.996 0.3,-4.007 0.44,-4.166c0.14,-2.651 0.35,-2.153 0.82,-3.947c0.47,-0.857 1.21,-2.213 2.38,-2.931c1.08,1.296 2.3,1.356 3.59,-0.817c1.28,-0.419 2.61,1.655 3.91,0.419c1.31,-0.419 2.59,-0.638 3.76,-0.06c1.15,0.04 2.15,-3.808 3.12,-1.655c1,1.774 2,0.598 3.17,-1.794c1.24,-0.219 2.68,1.615 4.29,-0.658c1.61,1.854 3.35,-0.299 5.22,0.18c1.87,-1.117 3.83,1.893 5.85,0.717c2.03,0.299 4.11,1.874 6.18,0.937c2.1,-2.851 4.19,1.296 6.24,0.837c2.06,1.057 4.07,-1.435 6,0.419c1.92,3.11 3.78,0.738 5.47,-0.319c1.71,2.034 3.26,-0.239 4.66,-1.375c1.38,-1.934 2.59,-3.549 3.55,-2.751c0.96,-0.499 1.69,-1.097 2.14,-4.446c0.25,0.179 0.16,-0.558 0,-4.007c-0.15,-2.053 -0.38,-2.432 -0.36,-4.685c0,-1.296 0.26,-2.711 1.05,-3.409c2.74,-2.452 9.02,1.794 13.16,5.084c1.38,1.096 2.52,2.073 3.21,2.671c1.17,1.376 2.27,2.352 3.34,3.329c1.06,1.336 2.11,2.074 3.13,3.788c1.01,2.173 2,3.568 3,3.987c0.99,2.552 1.97,4.067 2.97,3.907c0.99,0.14 2.01,1.157 3.04,3.589c1.03,-0.917 2.11,2.053 3.21,2.99c1.27,1.774 2.76,1.595 4.33,2.053c1.57,1.794 3.26,0 4.96,0.897c1.69,-0.777 3.39,0.519 5.01,0.858c1.61,1.973 3.14,-0.539 4.49,1.933c1.13,1.037 2.23,2.731 3.31,2.532c1.09,2.432 2.15,1.575 3.2,2.731c1.05,0.798 2.1,2.592 3.16,2.771c1.05,2.173 2.11,-1.415 3.2,2.711c1.15,-1.495 2.32,3.728 3.49,2.811c1.17,-0.658 2.34,3.09 3.51,2.791c1.17,2.173 2.34,3.29 3.51,2.791c1.17,4.685 2.32,-0.518 3.47,2.811c1.12,-2.153 2.24,-1.136 3.36,2.791c1.1,1.934 2.2,-0.219 3.3,2.851c1.08,-1.256 2.16,-1.894 3.23,2.91c1.06,-1.176 2.13,3.967 3.17,2.991c1,6.618 1.84,-0.599 2.59,2.83c0.73,-1.834 1.38,2.193 1.95,3.25c0.39,3.508 0.69,2.93 1.07,2.173c0.4,5.621 0.89,1.714 1.68,1.634c1.08,3.748 2.25,-2.153 3.44,0.24c1.18,-1.256 2.37,-2.532 3.47,-1.974c1.1,-3.808 2.1,-0.498 2.92,-2.432c1.25,-0.718 2.13,1.475 2.83,-2.911c0.69,0 1.24,-3.867 1.85,-3.688c0.87,1.157 1.85,-3.249 2.91,-6.08c1.07,-0.139 2.22,-3.449 3.48,-4.565c1.24,-2.592 2.58,-5.123 4.01,-3.269c1.44,-0.618 2.96,-2.512 4.56,-2.193c1.61,3.409 3.32,2.033 5.1,-1.316c1.8,-2.572 3.67,1.017 5.64,-0.638c1.97,-1.914 4.03,0.638 6.18,-0.159c1.17,0 2.32,-0.599 3.51,-1.496c2.38,-1.774 4.84,-4.724 7.55,-6.379c1.46,-0.718 3.07,-1.056 5.18,-1.196c8.03,-0.538 5.12,1.974 8.84,7.416c4.54,6.678 17.02,1.655 23.8,1.655v-112.296z" fill="currentColor" xmlns="http://www.w3.org/2000/svg"/></svg>